<?xml version="1.0" encoding="iso-8859-1"?>
<!-- Uploaded to: SVG Repo, www.svgrepo.com, Generator: SVG Repo Mixer Tools -->
<svg height="800px" width="800px" version="1.1" id="Layer_1" xmlns="http://www.w3.org/2000/svg" xmlns:xlink="http://www.w3.org/1999/xlink" 
	 viewBox="0 0 512.004 512.004" xml:space="preserve">
<g>
	<path style="fill:#B0D3F0;" d="M368.899,188.778L335.451,0H176.555l-33.448,188.778c-2.278,17.434-1.306,35.346,4.476,51.95
		c15.59,44.871,58.244,77.065,108.42,77.065s92.831-32.194,108.42-77.065C370.197,224.124,371.177,206.212,368.899,188.778"/>
	<path style="fill:#90BAE1;" d="M282.485,459.657V314.69c-8.501,2.013-17.364,3.107-26.483,3.107
		c-9.119,0-17.982-1.095-26.483-3.107v144.967c-55.517,2.604-97.103,13.188-97.103,25.865c0,14.627,55.331,26.483,123.586,26.483
		s123.586-11.855,123.586-26.483C379.588,472.845,338.002,462.261,282.485,459.657"/>
	<path style="fill:#C03A2B;" d="M256.002,167.708c-27.683-25.75-69.906-32.636-105.472-20.815l-7.424,41.887
		c-2.278,17.426-1.306,35.346,4.476,51.942c15.59,44.871,58.244,77.074,108.42,77.074s92.831-32.203,108.42-77.074
		c5.782-16.596,6.753-34.516,4.476-51.942l-0.512-2.86C331.39,201.218,285.336,195.153,256.002,167.708"/>
</g>
</svg>